{"title":"Sherlock Holmes 2009 1080p Brrip x264 Ratzz","uid":7110378,"size":1932862474,"categoryP":"video","categoryS":"hd___movies","magnet":"?xt=urn:btih:15bdd55b9ccd883d9ef8309b8e6df6282d6e52ba&amp;dn=Sherlock+Holmes+2009+1080p+Brrip+x264+Ratzz&amp;tr=udp%3A%2F%2Ftracker.openbittorrent.com%3A80&amp;tr=udp%3A%2F%2Fopen.demonii.com%3A1337&amp;tr=udp%3A%2F%2Ftracker.coppersurfer.tk%3A6969&amp;tr=udp%3A%2F%2Fexodus.desync.com%3A6969","seeders":1,"leechers":0,"uploader":"afterratzz","files":7,"time":1332014069,"description":"Encoded by Ratzz.\n\n\n\n\n\n\n\n\nGeneral\n\nComplete name                    : Sherlock Holmes 2009 1080p Brrip x264 Ratzz.mp4\n\nFormat                           : MP4\nFile size                        : 1.80 GiB\nDuration                         : 2h 8mn\nOverall bit rate                 : 2 005 Kbps\n\nVideo\n\nID                               : 1\nFormat profile                   : &lt;a class=&quot;__cf_email__&quot; href=&quot;/cdn-cgi/l/email-protection&quot; data-cfemail=&quot;034b6a646b434f362d33&quot;&gt;[email&amp;#160;protected]&lt;/a&gt;&lt;script cf-hash='f9e31' type=&quot;text/javascript&quot;&gt;\n/* &lt;![CDATA[ */!function(){try{var t=&quot;currentScript&quot;in document?document.currentScript:function(){for(var t=document.getElementsByTagName(&quot;script&quot;),e=t.length;e--;)if(t[e].getAttribute(&quot;cf-hash&quot;))return t[e]}();if(t&amp;&amp;t.previousSibling){var e,r,n,i,c=t.previousSibling,a=c.getAttribute(&quot;data-cfemail&quot;);if(a){for(e=&quot;&quot;,r=parseInt(a.substr(0,2),16),n=2;a.length-n;n+=2)i=parseInt(a.substr(n,2),16)^r,e+=String.fromCharCode(i);e=document.createTextNode(e),c.parentNode.replaceChild(e,c)}}}catch(u){}}();/* ]]&gt; */&lt;/script&gt;\nFormat settings, ReFrames        : 3 frames\nDuration                         : 2h 8mn\nBit rate mode                    : Variable\nBit rate                         : 1 907 Kbps\nMaximum bit rate                 : 169 Mbps\nWidth                            : 1 920 pixels\nHeight                           : 1 080 pixels\nDisplay aspect ratio             : 16:9\nFrame rate mode                  : Constant\nFrame rate                       : 23.976 fps\nColor space                      : YUV\nChroma subsampling               : 4:2:0\nBit depth                        : 8 bits\nScan type                        : Progressive\nBits/(Pixel*Frame)               : 0.038\nStream size                      : 1.71 GiB (95%)\nTitle                            : Sherlock Holmes 2009 1080p Brrip x264 Ratzz\n\nAudio\nID                               : 2\nFormat                           : AAC\nFormat/Info                      : Advanced Audio Codec\nFormat profile                   : LC\nCodec ID                         : 40\nDuration                         : 2h 8mn\nBit rate mode                    : Variable\nBit rate                         : 96.0 Kbps\nMaximum bit rate                 : 102 Kbps\nChannel(s)                       : 2 channels\nChannel positions                : Front: L R\nSampling rate                    : 48.0 KHz\nCompression mode                 : Lossy\nStream size                      : 88.1 MiB (5%)\nLanguage                         : English\n\n\n\n\n\nSubtitles                        : eng .srt file included.\n\n\n\n\n\n\n\n\nPoster :\n  &lt;a href=&quot;\nhttp://img716.imageshack.us/img716/7614/sherlockholmes20091080pd.jpg&quot; rel=&quot;nofollow&quot; target=&quot;_NEW&quot;&gt;\nhttp://img716.imageshack.us/img716/7614/sherlockholmes20091080pd.jpg&lt;/a&gt;\n\n\n\n\n\nScreens :\n\n  &lt;a href=&quot;\nhttp://img834.imageshack.us/img834/3554/sherlockholmes20091080p.jpg&quot; rel=&quot;nofollow&quot; target=&quot;_NEW&quot;&gt;\nhttp://img834.imageshack.us/img834/3554/sherlockholmes20091080p.jpg&lt;/a&gt;\n  &lt;a href=&quot;\nhttp://img252.imageshack.us/img252/3554/sherlockholmes20091080p.jpg&quot; rel=&quot;nofollow&quot; target=&quot;_NEW&quot;&gt;\nhttp://img252.imageshack.us/img252/3554/sherlockholmes20091080p.jpg&lt;/a&gt;\n  &lt;a href=&quot;\nhttp://img832.imageshack.us/img832/3554/sherlockholmes20091080p.jpg&quot; rel=&quot;nofollow&quot; target=&quot;_NEW&quot;&gt;\nhttp://img832.imageshack.us/img832/3554/sherlockholmes20091080p.jpg&lt;/a&gt;\n\n\n\n\n\n\n\npls seed back after download and provide feedback.\nthank you.","torrent":{"xt":"urn:btih:15bdd55b9ccd883d9ef8309b8e6df6282d6e52ba","amp;dn":"Sherlock+Holmes+2009+1080p+Brrip+x264+Ratzz","amp;tr":["udp%3A%2F%2Ftracker.openbittorrent.com%3A80","udp%3A%2F%2Fopen.demonii.com%3A1337","udp%3A%2F%2Ftracker.coppersurfer.tk%3A6969","udp%3A%2F%2Fexodus.desync.com%3A6969"],"infoHash":"15bdd55b9ccd883d9ef8309b8e6df6282d6e52ba","infoHashBuffer":{"type":"Buffer","data":[21,189,213,91,156,205,136,61,158,248,48,155,142,109,246,40,45,110,82,186]},"announce":[],"urlList":[]}}